<?xml version="1.0" encoding="UTF-8" standalone="no"?><!DOCTYPE svg PUBLIC "-//W3C//DTD SVG 1.1//EN" "http://www.w3.org/Graphics/SVG/1.1/DTD/svg11.dtd"><svg width="100%" height="100%" viewBox="0 0 100 100" version="1.1" xmlns="http://www.w3.org/2000/svg" xmlns:xlink="http://www.w3.org/1999/xlink" xml:space="preserve" xmlns:serif="http://www.serif.com/" style="fill-rule:evenodd;clip-rule:evenodd;stroke-linejoin:round;stroke-miterlimit:2;"><path d="M50,16.47c-18.285,0 -33.114,14.826 -33.114,33.114c0,14.631 9.487,27.043 22.647,31.422c1.653,0.306 2.188,-0.72 2.188,-1.592l0,-6.165c-9.211,2.004 -11.129,-3.907 -11.129,-3.907c-1.506,-3.828 -3.678,-4.846 -3.678,-4.846c-3.005,-2.056 0.229,-2.012 0.229,-2.012c3.325,0.232 5.075,3.414 5.075,3.414c2.952,5.061 7.746,3.598 9.636,2.751c0.295,-2.139 1.153,-3.601 2.103,-4.426c-7.354,-0.842 -15.087,-3.681 -15.087,-16.367c0,-3.618 1.295,-6.57 3.411,-8.888c-0.342,-0.836 -1.476,-4.206 0.323,-8.764c0,0 2.782,-0.889 9.109,3.394c2.641,-0.734 5.472,-1.101 8.287,-1.115c2.815,0.014 5.649,0.381 8.295,1.115c6.322,-4.283 9.098,-3.394 9.098,-3.394c1.802,4.561 0.668,7.93 0.326,8.764c2.125,2.318 3.408,5.273 3.408,8.888c0,12.719 -7.746,15.52 -15.12,16.339c1.187,1.027 2.272,3.041 2.272,6.132l0,9.087c0,0.88 0.529,1.915 2.21,1.589c13.149,-4.384 22.625,-16.794 22.625,-31.419c0,-18.288 -14.827,-33.114 -33.114,-33.114Z" style="fill:#fff;fill-rule:nonzero;"/></svg>