<?xml version="1.0" encoding="UTF-8" standalone="no"?><!DOCTYPE svg PUBLIC "-//W3C//DTD SVG 1.1//EN" "http://www.w3.org/Graphics/SVG/1.1/DTD/svg11.dtd"><svg width="100%" height="100%" viewBox="0 0 2134 2134" version="1.1" xmlns="http://www.w3.org/2000/svg" xmlns:xlink="http://www.w3.org/1999/xlink" xml:space="preserve" xmlns:serif="http://www.serif.com/" style="fill-rule:evenodd;clip-rule:evenodd;stroke-linejoin:round;stroke-miterlimit:2;"><g><g><path d="M1626.27,416.357l-1119.2,0c-50.018,0 -90.708,40.69 -90.708,90.708l0,1119.2c0,50.018 40.69,90.708 90.708,90.708l1119.2,0c50.018,0 90.708,-40.69 90.708,-90.708l0,-1119.2c0,-50.018 -40.69,-90.708 -90.708,-90.708Zm-867.581,1104.71c-63.423,0 -114.839,-51.415 -114.839,-114.838c0,-63.423 51.416,-114.839 114.839,-114.839c63.423,0 114.838,51.416 114.838,114.839c0,63.423 -51.415,114.838 -114.838,114.838Zm434.239,-68.166c0,24.321 -19.718,44.036 -44.036,44.036l-93.347,0c-24.321,0 -44.033,-19.713 -44.033,-44.036l0,-46.675c0,-144.821 -117.821,-262.639 -262.642,-262.639l-46.675,0c-24.32,0 -44.033,-19.712 -44.033,-44.033l0,-93.347c0,-24.321 19.718,-44.033 44.033,-44.033l46.675,0c244.852,0 444.058,199.203 444.058,444.057l0,46.67Zm281.828,44.036l-93.348,0c-24.32,0 -44.035,-19.713 -44.035,-44.036l0,-46.675c0,-324.502 -264.001,-588.502 -588.503,-588.502l-46.675,0c-24.32,0 -44.033,-19.713 -44.033,-44.034l0,-93.347c0,-24.32 19.718,-44.033 44.033,-44.033l46.675,0c205.656,0 398.998,80.085 544.414,225.505c145.415,145.421 225.505,338.763 225.505,544.414l0,46.672l0.002,0c0.003,24.321 -19.715,44.036 -44.035,44.036Z" style="fill:#fff;fill-rule:nonzero;"/></g></g></svg>